<svg xmlns="http://www.w3.org/2000/svg" viewBox="0 0 244 80" width="244" height="80" role="img" aria-label="sysf.io">
  <text x="4" y="55" font-family="Helvetica Neue, Helvetica, Arial, sans-serif" font-size="48" font-weight="700" letter-spacing="-2" fill="#1D2D36">sys</text>

  <!-- neural-network "f" mark -->
  <g transform="translate(92,12) scale(1.75)">
    <g stroke="#3C8B96" stroke-width="1.7" stroke-linecap="round" fill="none">
      <path d="M16 16V4M16 16v12M16 16H4M16 16h12"/>
    </g>
    <g stroke="#8B2A34" stroke-width="1.3" fill="none" opacity="0.9">
      <path d="M16 9l6.2 7-6.2 7-6.2-7z"/>
      <path d="M9.8 16h12.4M16 9v14M11 12l10 8M21 12l-10 8"/>
    </g>
    <g fill="#3C8B96">
      <circle cx="16" cy="4" r="2.3"/><circle cx="16" cy="28" r="2.3"/>
      <circle cx="4" cy="16" r="2.3"/><circle cx="28" cy="16" r="2.3"/>
    </g>
    <g fill="#8B2A34">
      <circle cx="16" cy="16" r="1.9"/><circle cx="16" cy="9" r="1.5"/>
      <circle cx="22.2" cy="16" r="1.5"/><circle cx="16" cy="23" r="1.5"/><circle cx="9.8" cy="16" r="1.5"/>
    </g>
  </g>

  <text x="150" y="55" font-family="Helvetica Neue, Helvetica, Arial, sans-serif" font-size="48" font-weight="700" letter-spacing="-2" fill="#1D2D36">.io</text>
</svg>
