<svg xmlns="http://www.w3.org/2000/svg" viewBox="0 0 224 240" fill="none">
<g><line x1="112" y1="98" x2="112" y2="66" stroke="#466e78" stroke-width="2.4" stroke-linecap="round" opacity="0.92"/><line x1="112" y1="66" x2="134" y2="52" stroke="#466e78" stroke-width="2.4" stroke-linecap="round" opacity="0.92"/><line x1="134" y1="52" x2="160" y2="50" stroke="#466e78" stroke-width="2.4" stroke-linecap="round" opacity="0.92"/><line x1="160" y1="50" x2="180" y2="64" stroke="#466e78" stroke-width="2.4" stroke-linecap="round" opacity="0.92"/><line x1="112" y1="66" x2="160" y2="50" stroke="#466e78" stroke-width="1.4" stroke-linecap="round" opacity="0.5"/><line x1="134" y1="52" x2="180" y2="64" stroke="#466e78" stroke-width="1.4" stroke-linecap="round" opacity="0.5"/><line x1="112" y1="98" x2="134" y2="52" stroke="#466e78" stroke-width="1.4" stroke-linecap="round" opacity="0.5"/><line x1="112" y1="98" x2="112" y2="104" stroke="#466e78" stroke-width="2.4" stroke-linecap="round" opacity="0.9"/><line x1="112" y1="130" x2="62" y2="130" stroke="#b4232f" stroke-width="2.2" stroke-linecap="round" opacity="0.92"/><line x1="112" y1="130" x2="162" y2="130" stroke="#b4232f" stroke-width="2.2" stroke-linecap="round" opacity="0.92"/><line x1="112" y1="130" x2="112" y2="104" stroke="#b4232f" stroke-width="2.2" stroke-linecap="round" opacity="0.92"/><line x1="112" y1="130" x2="112" y2="158" stroke="#b4232f" stroke-width="2.2" stroke-linecap="round" opacity="0.92"/><line x1="112" y1="130" x2="84" y2="106" stroke="#b4232f" stroke-width="2.2" stroke-linecap="round" opacity="0.92"/><line x1="112" y1="130" x2="140" y2="106" stroke="#b4232f" stroke-width="2.2" stroke-linecap="round" opacity="0.92"/><line x1="112" y1="130" x2="84" y2="154" stroke="#b4232f" stroke-width="2.2" stroke-linecap="round" opacity="0.92"/><line x1="112" y1="130" x2="140" y2="154" stroke="#b4232f" stroke-width="2.2" stroke-linecap="round" opacity="0.92"/><line x1="112" y1="104" x2="140" y2="106" stroke="#b4232f" stroke-width="1.5" stroke-linecap="round" opacity="0.55"/><line x1="140" y1="106" x2="162" y2="130" stroke="#b4232f" stroke-width="1.5" stroke-linecap="round" opacity="0.55"/><line x1="162" y1="130" x2="140" y2="154" stroke="#b4232f" stroke-width="1.5" stroke-linecap="round" opacity="0.55"/><line x1="140" y1="154" x2="112" y2="158" stroke="#b4232f" stroke-width="1.5" stroke-linecap="round" opacity="0.55"/><line x1="112" y1="158" x2="84" y2="154" stroke="#b4232f" stroke-width="1.5" stroke-linecap="round" opacity="0.55"/><line x1="84" y1="154" x2="62" y2="130" stroke="#b4232f" stroke-width="1.5" stroke-linecap="round" opacity="0.55"/><line x1="62" y1="130" x2="84" y2="106" stroke="#b4232f" stroke-width="1.5" stroke-linecap="round" opacity="0.55"/><line x1="84" y1="106" x2="112" y2="104" stroke="#b4232f" stroke-width="1.5" stroke-linecap="round" opacity="0.55"/><line x1="62" y1="130" x2="162" y2="130" stroke="#b4232f" stroke-width="1.5" stroke-linecap="round" opacity="0.5"/><line x1="112" y1="104" x2="112" y2="158" stroke="#b4232f" stroke-width="1.5" stroke-linecap="round" opacity="0.5"/><line x1="84" y1="106" x2="140" y2="154" stroke="#b4232f" stroke-width="1.5" stroke-linecap="round" opacity="0.5"/><line x1="140" y1="106" x2="84" y2="154" stroke="#b4232f" stroke-width="1.5" stroke-linecap="round" opacity="0.5"/><line x1="112" y1="130" x2="112" y2="184" stroke="#466e78" stroke-width="2.4" stroke-linecap="round" opacity="0.92"/><line x1="112" y1="184" x2="112" y2="216" stroke="#466e78" stroke-width="2.4" stroke-linecap="round" opacity="0.92"/><line x1="112" y1="184" x2="88" y2="198" stroke="#466e78" stroke-width="1.6" stroke-linecap="round" opacity="0.6"/><line x1="112" y1="184" x2="136" y2="198" stroke="#466e78" stroke-width="1.6" stroke-linecap="round" opacity="0.6"/><line x1="88" y1="198" x2="112" y2="216" stroke="#466e78" stroke-width="1.6" stroke-linecap="round" opacity="0.6"/><line x1="136" y1="198" x2="112" y2="216" stroke="#466e78" stroke-width="1.6" stroke-linecap="round" opacity="0.6"/><line x1="88" y1="198" x2="136" y2="198" stroke="#466e78" stroke-width="1.6" stroke-linecap="round" opacity="0.6"/></g>
<circle cx="180" cy="64" r="13" fill="#8fb9bb" opacity="0.22"/><circle cx="180" cy="64" r="7.5" fill="#8fb9bb"/>
<g><circle cx="112" cy="98" r="4.6" fill="#466e78"/><circle cx="112" cy="66" r="4.6" fill="#466e78"/><circle cx="134" cy="52" r="4.6" fill="#466e78"/><circle cx="160" cy="50" r="4.6" fill="#466e78"/><circle cx="62" cy="130" r="4.6" fill="#b4232f"/><circle cx="162" cy="130" r="4.6" fill="#b4232f"/><circle cx="112" cy="104" r="4.6" fill="#b4232f"/><circle cx="112" cy="158" r="4.6" fill="#b4232f"/><circle cx="84" cy="106" r="4" fill="#b4232f"/><circle cx="140" cy="106" r="4" fill="#b4232f"/><circle cx="84" cy="154" r="4" fill="#b4232f"/><circle cx="140" cy="154" r="4" fill="#b4232f"/><circle cx="112" cy="184" r="4.4" fill="#466e78"/><circle cx="88" cy="198" r="4.4" fill="#466e78"/><circle cx="136" cy="198" r="4.4" fill="#466e78"/><circle cx="112" cy="216" r="4.4" fill="#466e78"/><circle cx="112" cy="130" r="6.4" fill="#b4232f"/></g>
</svg>
