<svg xmlns="http://www.w3.org/2000/svg" viewBox="0 0 1200 630" width="1200" height="630">
  <defs>
    <pattern id="grid" width="48" height="48" patternUnits="userSpaceOnUse">
      <path d="M48 0H0V48" fill="none" stroke="#3C8B96" stroke-opacity="0.10" stroke-width="1"/>
    </pattern>
  </defs>
  <rect width="1200" height="630" fill="#14212A"/>
  <rect width="1200" height="630" fill="url(#grid)"/>
  <rect x="0" y="0" width="1200" height="8" fill="#3C8B96"/>

  <!-- wordmark: sys [neural f] .io -->
  <g transform="translate(96,120)">
    <text x="0" y="52" font-family="Helvetica Neue, Helvetica, Arial, sans-serif" font-size="64" font-weight="700" letter-spacing="-3" fill="#EAF1F2">sys</text>
    <g transform="translate(118,6) scale(1.9)">
      <g stroke="#3C8B96" stroke-width="1.7" stroke-linecap="round" fill="none"><path d="M16 16V4M16 16v12M16 16H4M16 16h12"/></g>
      <g stroke="#B23C46" stroke-width="1.3" fill="none"><path d="M16 9l6.2 7-6.2 7-6.2-7z"/><path d="M9.8 16h12.4M16 9v14M11 12l10 8M21 12l-10 8"/></g>
      <g fill="#3C8B96"><circle cx="16" cy="4" r="2.3"/><circle cx="16" cy="28" r="2.3"/><circle cx="4" cy="16" r="2.3"/><circle cx="28" cy="16" r="2.3"/></g>
      <g fill="#B23C46"><circle cx="16" cy="16" r="1.9"/><circle cx="16" cy="9" r="1.5"/><circle cx="22.2" cy="16" r="1.5"/><circle cx="16" cy="23" r="1.5"/><circle cx="9.8" cy="16" r="1.5"/></g>
    </g>
    <text x="188" y="52" font-family="Helvetica Neue, Helvetica, Arial, sans-serif" font-size="64" font-weight="700" letter-spacing="-3" fill="#EAF1F2">.io</text>
  </g>

  <text x="96" y="360" font-family="Helvetica Neue, Helvetica, Arial, sans-serif" font-size="60" font-weight="700" letter-spacing="-2" fill="#ffffff">Sovereign AI, productized in Switzerland.</text>
  <text x="96" y="418" font-family="Helvetica Neue, Helvetica, Arial, sans-serif" font-size="30" fill="#8FB3B8">Specialized AI for niche areas — custom models fine-tuned on Apertus, compliant by design.</text>

  <g transform="translate(96,500)" font-family="Helvetica Neue, Helvetica, Arial, sans-serif" font-size="22" font-weight="600" fill="#AEC0C7">
    <rect x="0" y="-2" width="10" height="10" fill="#3C8B96"/><text x="22" y="8">Swiss FADP</text>
    <rect x="150" y="-2" width="10" height="10" fill="#3C8B96"/><text x="172" y="8">EU GDPR</text>
    <rect x="290" y="-2" width="10" height="10" fill="#3C8B96"/><text x="312" y="8">EU AI Act</text>
    <rect x="440" y="-2" width="10" height="10" fill="#8B2A34"/><text x="462" y="8">On-prem · Zero data egress</text>
  </g>
</svg>
